<svg version="1.1" xmlns="http://www.w3.org/2000/svg" xmlns:xlink="http://www.w3.org/1999/xlink" width="250" height="101" viewBox="0,0,250,101"><g transform="translate(-122.5,-210.5)"><g data-paper-data="{&quot;isPaintingLayer&quot;:true}" fill-rule="nonzero" stroke="none" stroke-linecap="butt" stroke-linejoin="miter" stroke-miterlimit="10" stroke-dasharray="" stroke-dashoffset="0" style="mix-blend-mode: normal"><path d="M122.5,311.5v-101h250v101z" fill="#a5a5a5" stroke-width="0"/><path d="M159.05806,256.98924c-0.00367,1.50315 -0.05805,3.00772 -0.05805,4.51076c0,4.57691 -0.62343,9.79101 0.20355,14.31687c0.59563,3.25972 2.06871,5.64882 3.53252,8.56509c0,0 1.11803,2.23607 -1.11804,3.35411c-2.23607,1.11804 -3.35411,-1.11803 -3.35411,-1.11803c-1.78812,-3.58915 -3.22425,-5.86973 -3.97958,-9.90591c-1.08375,-5.79122 -0.28435,-12.33599 -0.28435,-18.21213c0,-0.21879 -0.00901,-0.9822 -0.01047,-1.96277c-0.5271,-0.34923 -0.98953,-0.96202 -0.98953,-2.03723c0,-1.11913 0.50098,-1.73729 1.05442,-2.07872c0.0486,-1.09836 0.1314,-1.95893 0.27008,-2.15302c0.7858,-1.0998 8.03927,-5.12935 9.55458,-5.99819c3.9764,-2.27998 7.54652,-5.95421 12.04654,-7.20318c1.93949,-0.53831 7.82053,0.38573 9.16323,0.84296c1.67528,0.57049 4.01298,0.87996 4.67172,2.52255c2.16793,5.40584 -3.52689,6.8683 -6.39605,8.41634c-4.39222,3.39308 -8.46948,4.31744 -13.75276,5.87135c-3.80778,1.11993 -6.71974,2.15005 -10.55371,2.26916zM159.80321,251.96318c2.94605,-0.19674 5.31239,-1.13248 8.39772,-2.03993c4.90243,-1.44189 8.47599,-2.10584 12.49027,-5.29985c3.83566,-1.72344 5.57895,-1.64748 3.08388,-1.88925c-2.23899,-0.21696 -4.54516,-1.44427 -6.7007,-0.80103c-3.88871,1.16044 -7.21023,4.66407 -10.70598,6.67322c-1.43804,0.8265 -2.85371,1.69335 -4.31543,2.47722c-0.69531,0.37287 -1.52341,0.55932 -2.24976,0.87963z" fill="#000000" stroke-width="0.5"/><path d="M193.5,296c-2.5,0 -2.5,-2.5 -2.5,-2.5l0.41987,-3.38675c0.56247,-0.77924 1.46406,-1.40299 1.6874,-2.33771c0.3313,-1.3866 -0.08625,-2.85006 -0.10727,-4.27554c-0.06386,-4.33111 0,-8.6685 0,-13c0,-15.33334 0,-30.66666 0,-46c0,0 0,-2.5 2.5,-2.5c2.5,0 2.5,2.5 2.5,2.5c0,15.33334 0,30.66666 0,46c0,4.33206 0.05326,8.66821 0,13c-0.02346,1.90834 0.36916,3.8764 -0.10727,5.72446c-0.36042,1.39807 -1.54173,2.44152 -2.3126,3.66229l0.41987,0.61325c0,0 0,2.5 -2.5,2.5z" fill="#000000" stroke-width="0.5"/><path d="M240.29057,280.12829c2.37171,0.79057 1.58114,3.16228 1.58114,3.16228l-1.12592,3.30781c-0.93522,1.31505 -1.46997,3.03967 -2.80567,3.94516c-4.73191,3.20785 -11.02765,1.89203 -13.74982,-3.08683c-0.63344,-1.15857 -0.16225,-2.63658 -0.1903,-3.95671c-0.02088,-0.98305 -0.01713,-1.96637 -0.01054,-2.94972c-0.35789,0.34185 -0.75161,0.71106 -1.19529,1.12046c-3.52048,3.24847 -6.46824,7.59906 -12.20172,2.44519c-1.38504,-1.24503 -0.8242,-3.75872 -0.40215,-5.57264c0.25596,-1.10007 1.65961,-1.5623 2.28159,-2.50507c1.98271,-3.00529 3.74025,-9.73691 6.77329,-11.7005c1.4734,-0.95388 3.50321,-0.22515 5.25482,-0.33772c0,0 2.5,0 2.5,2.5c0,0.65859 -0.1735,1.14368 -0.42908,1.50099c1.34792,0.03755 2.42908,1.14202 2.42908,2.49901v5c0.61766,2.59415 0.07202,5.3343 0,8c-0.01847,0.68379 -0.44146,1.40703 -0.1903,2.04329c0.88749,2.24829 4.61768,1.96558 6.25018,0.91317c0.66587,-0.42926 0.79622,-1.36989 1.19433,-2.05484l0.87408,-2.69219c0,0 0.79057,-2.37171 3.16228,-1.58114zM221.75482,268.66228c-1.01966,0.72902 -0.99811,2.30129 -1.5649,3.41929c-1.17477,2.31722 -2.20959,4.72599 -3.66181,6.88021c-0.42439,0.62953 -1.15591,0.98503 -1.71841,1.49493c-0.14493,0.13137 -0.59185,0.37963 -0.40215,0.42736c3.02242,0.7604 2.71764,-0.54683 4.90695,-2.80385c1.4902,-1.53628 3.01272,-3.05658 4.6855,-4.39143v-3.18878c0,-0.56281 0.18598,-1.08218 0.49983,-1.50002c-0.91502,-0.11264 -1.99507,-0.87389 -2.74501,-0.3377z" fill="#000000" stroke-width="0.5"/><path d="M256,286.5c0,-2.5 2.5,-2.5 2.5,-2.5l0.61325,0.41987c1.20384,-0.76555 2.26384,-1.82861 3.61152,-2.29664c2.39127,-0.83045 5.23271,-0.40076 7.399,-1.71034c0.85389,-0.51619 1.25297,-1.6403 2.14448,-2.0884c1.22798,-0.61722 2.79136,-0.34573 4,-1c1.25507,-0.6794 3.39789,-3.89264 4.06947,-5.07932c0.85896,-1.51777 1.57493,-2.96935 2.16689,-4.39984c-1.82794,1.43439 -3.7005,2.56107 -5.28015,3.04739c-1.824,0.56155 -3.81598,0.10045 -5.72446,0.10727c-3.45605,0.01236 -7.09706,-0.5852 -10.11803,-2.26393c-1.76612,-0.98142 -4.26842,-1.37499 -5.15325,-3.19143c-0.8341,-1.7123 0.56395,-3.76732 0.84593,-5.65098c0,0 0.60634,-2.42536 3.0317,-1.81902c2.42536,0.60634 1.81902,3.0317 1.81902,3.0317c-0.38469,0.78301 -1.56625,1.58013 -1.15407,2.34902c0.46606,0.86941 1.93542,0.43099 2.84675,0.80857c1.20048,0.49739 2.18732,1.52343 3.45635,1.80295c1.44084,0.31736 2.95026,-0.07373 4.42562,-0.06688c1.42561,0.00662 2.90841,0.51147 4.27554,0.10727c1.31525,-0.38887 2.28881,-1.51745 3.36592,-2.36654c2.47,-1.94711 5.17806,-3.75393 5.75816,-6.66478c0.0708,-1.141 0.10195,-2.3275 0.10039,-3.57595c0,0 0,-2.5 2.5,-2.5c2.5,0 2.5,2.5 2.5,2.5c-0.00034,0.29429 -0.00237,0.58603 -0.00617,0.87537c0.00617,0.07897 0.00617,0.12463 0.00617,0.12463v1c-0.04534,1.27114 0.3705,2.64667 -0.13603,3.81341c-0.0563,0.12967 -0.11733,0.26138 -0.18288,0.3949c-0.59023,5.27239 -2.07061,9.93018 -5.01882,15.0465c-1.32183,2.2939 -3.66791,5.57205 -5.93053,6.92068c-1.18056,0.70367 -2.76937,0.38808 -4,1c-0.79514,0.39538 -1.08118,1.4769 -1.85552,1.9116c-1.72163,0.96649 -3.58578,1.70622 -5.49369,2.21412c-1.00121,0.26653 -2.12158,-0.24352 -3.10731,0.07554c-0.93036,0.30114 -1.59232,1.13557 -2.38848,1.70336l-3.38675,0.41987c0,0 -2.5,0 -2.5,-2.5z" fill="#000000" stroke-width="0.5"/></g></g></svg>