<svg version="1.1" xmlns="http://www.w3.org/2000/svg" xmlns:xlink="http://www.w3.org/1999/xlink" width="297.47625" height="74.80907" viewBox="0,0,297.47625,74.80907"><g transform="translate(-79.00064,-41.94656)"><g data-paper-data="{&quot;isPaintingLayer&quot;:true}" fill="#000000" fill-rule="nonzero" stroke="none" stroke-width="0.5" stroke-linecap="butt" stroke-linejoin="miter" stroke-miterlimit="10" stroke-dasharray="" stroke-dashoffset="0" style="mix-blend-mode: normal"><path d="M124.5,86c-0.62842,0 -1.09887,-0.15796 -1.45107,-0.39448c-0.02723,0.35984 -0.14887,0.7579 -0.41105,1.19042c-1.29594,2.13788 -3.43382,0.84194 -3.43382,0.84194l-3.23157,-1.96507c-3.39604,-2.71132 -6.92438,-5.4199 -10.15834,-8.32676c-0.46672,-0.41951 -5.77868,-5.8187 -5.79694,-5.83326c-2.94146,-2.34651 -6.50184,-3.49496 -9.28499,-6.24503c0,0 -1.00618,-1.00618 -0.74123,-2.25944c-0.39934,0.07028 -0.87045,0.03248 -1.41948,-0.18714c-0.27385,-0.10954 -0.50246,-0.23846 -0.69271,-0.38067c0.41531,5.25335 0.12728,10.59772 0.18826,16.10043c0.07193,6.49156 -0.32512,11.95291 2.66899,17.84102c0,0 1.11803,2.23607 -1.11803,3.3541c-2.23607,1.11803 -3.3541,-1.11803 -3.3541,-1.11803c-7.21293,-14.63518 0.54448,-31.90582 -5.89118,-46.74037l-1.23496,-3.55916c0,0 -0.8185,-2.36222 1.54372,-3.18071c2.36222,-0.8185 3.18071,1.54372 3.18071,1.54372l1.17268,3.38939c1.24075,2.91245 1.98971,5.83691 2.43706,8.78554c2.62657,-6.28604 5.42177,-9.67838 11.48506,-13.32345l2.77522,-2.80074c0,0 1.76777,-1.76777 3.53553,0c1.76777,1.76777 0,3.53553 0,3.53553l-3.22478,3.19926c-5.45404,3.33155 -7.70007,5.76988 -10.04681,11.52659c1.2589,-0.27407 2.27159,0.73862 2.27159,0.73862c2.58336,2.62201 5.92649,3.54792 8.71501,5.75497c1.67998,1.32966 4.39876,4.54634 6.20306,6.16674c3.07457,2.76118 6.42754,5.33629 9.65035,7.92019l2.95974,1.78798c0,0 0.082,0.04971 0.20415,0.14571c-0.00009,-0.00516 -0.00009,-0.00783 -0.00009,-0.00783v-4c0.00041,-6.27222 -0.08225,-12.43232 -0.97487,-18.64645c0,0 -0.35355,-2.47487 2.12132,-2.82843c2.47487,-0.35355 2.82843,2.12132 2.82843,2.12132c0.91705,6.45299 1.0247,12.84201 1.02513,19.35355v4c0,0 0,2.5 -2.5,2.5z"/><path d="M116,48.5c0,-1.38071 1.11929,-2.5 2.5,-2.5c1.38071,0 2.5,1.11929 2.5,2.5c0,1.38071 -1.11929,2.5 -2.5,2.5c-1.38071,0 -2.5,-1.11929 -2.5,-2.5z"/><path d="M140,86.5c0,-2.5 2.5,-2.5 2.5,-2.5l2.69454,0.01873c0.91371,-0.15628 2.06631,0.1667 2.74114,-0.46884c0.98805,-0.93052 0.82098,-2.66195 1.69012,-3.7044c0.65636,-0.78724 2.25396,-0.58841 2.67001,-1.52514c0.51846,-1.16731 -0.24047,-2.54429 -0.29581,-3.82036c-0.02069,-0.47705 0.76189,-5.48343 -0.45671,-5.6903c-4.46657,-0.75825 -8.555,2.0729 -12.16992,-2.99537c-2.35209,-3.29773 0.56113,-6.34881 2.0465,-8.70108c0,0 1.38675,-2.08013 3.46688,-0.69338c2.08013,1.38675 0.69338,3.46688 0.69338,3.46688c-0.56247,0.77924 -1.19772,1.51079 -1.6874,2.33771c-0.1694,0.28606 -0.5201,0.74671 -0.2661,0.96121c4.31586,3.64476 9.86942,-2.47834 13.18307,4.35762c0.57596,1.18819 0.15419,2.63677 0.1903,3.95671c0.05082,1.85775 -0.05699,8.60958 -0.29581,9.17964c-0.5344,1.27556 -2.44483,1.41226 -3.32999,2.47486c-1.04054,1.24914 -1.02165,3.30386 -2.30988,4.2956c-1.4467,1.11374 -3.50591,1.02078 -5.25886,1.53116l-3.30546,0.01873c0,0 -2.5,0 -2.5,-2.5z"/><path d="M155,96.5c0,-2.5 2.5,-2.5 2.5,-2.5h2c4.58164,0.01438 8.81639,-1.74552 12.1258,-5.15451c0.74614,-0.7686 2.19132,-4.03003 1.5645,-5.38879c-0.87187,-1.88996 -4.98973,-3.09725 -6.15208,-3.9286c-1.19207,-0.85261 -2.01607,-2.13441 -3.1232,-3.09475c-1.14513,-0.9933 -2.94837,-1.39432 -3.61921,-2.75371c-0.76531,-1.55081 -0.25523,-3.45076 -0.29581,-5.17964c-0.12422,-5.2924 1.70975,-10.29941 5.89813,-13.91938c1.27281,-1.10007 2.98922,-1.54446 4.48383,-2.31669c0,0 2.23607,-1.11803 3.3541,1.11803c1.11803,2.23607 -1.11803,3.3541 -1.11803,3.3541c-3.5581,1.70338 -6.67327,4.18032 -7.68491,8.33831c-0.26999,1.10972 0.10871,2.28429 0.06688,3.42562c-0.03462,0.94464 -0.72708,1.97919 -0.29581,2.82036c0.40867,0.7971 1.67778,0.69117 2.38079,1.24629c1.0696,0.84459 1.76728,2.11383 2.8768,2.90525c3.27711,2.33757 5.97378,1.53982 7.84792,6.0714c3.23939,7.83266 -5.89118,14.18822 -11.70815,16.82746c-1.7757,0.80566 -4.72644,0.62413 -6.60155,0.62925h-2c0,0 -2.5,0 -2.5,-2.5z"/><path d="M188.13023,111.70364c0.79636,-2.36977 3.16613,-1.57341 3.16613,-1.57341l0.39967,0.13431c0.99949,0.54929 1.94256,2.07882 2.99848,1.64786c1.05592,-0.43096 0.54586,-2.22454 0.98914,-3.27535c1.29559,-3.07125 3.02874,-5.93896 4.54311,-8.90843c1.9642,-3.85153 3.84195,-7.80213 5.7723,-11.73154c-1.37612,0.40822 -3.02484,-0.02924 -4.49906,0.00293c-1.57485,0.03436 -3.21524,0.34394 -4.72446,-0.10727c-5.03415,-1.50506 -10.04641,-8.07157 -11.64725,-12.60216c0,0 -0.79057,-2.37171 1.58114,-3.16228c2.37171,-0.79057 3.16228,1.58114 3.16228,1.58114c0.89343,2.93058 5.00885,8.51271 8.35275,9.39784c1.05606,0.27954 2.18381,-0.14651 3.27554,-0.10727c0.92847,0.03337 2.01867,0.8734 2.76825,0.3245c1.13666,-0.83234 1.02812,-2.67655 1.92615,-3.76206c0.88735,-1.07261 2.48104,-1.43282 3.30173,-2.55726c0.85623,-1.17315 1.02642,-2.71736 1.53964,-4.07604l1.83533,-4.58831c0.35452,-0.94948 1.26971,-1.62559 2.34282,-1.62559c1.24716,0 2.28102,0.91323 2.46936,2.10745l0.86185,4.88176l-0.07207,0.01272c0.04262,0.26065 0.07097,0.52436 0.08265,0.79162c0.01476,0.33784 -4.44808,9.00695 -4.78851,9.6745c-3.78592,7.42369 -7.57185,14.84739 -11.35777,22.27108c-0.75206,1.47469 -4.74997,9.64832 -5.82552,10.0873c-2.05556,0.83895 -4.3204,-1.02506 -6.48059,-1.5376l-0.39967,-0.13431c0,0 -2.36977,-0.79636 -1.57341,-3.16613z"/><path d="M255.5,72c-0.31419,0 -0.58889,-0.03949 -0.82908,-0.10853c-0.31775,0.40621 -0.60439,0.91781 -0.88464,1.61992c-0.46865,1.1741 -0.32168,2.55635 -0.88599,3.68759c-0.23934,0.47978 -1.90324,0.91321 -1.37219,0.83926c0.94247,-0.13125 1.75154,-0.75789 2.66644,-1.01949c0.93582,-0.26759 2.05651,-0.02082 2.86534,-0.56227c0.70744,-0.47357 0.88067,-1.45829 1.27785,-2.21128c1.33841,-2.53745 2.56409,-5.13275 3.84465,-7.69991c-0.009,-0.03817 -0.0181,-0.07638 -0.02731,-0.11462l-0.15507,0.06935c0,0 0,-0.19868 0.05601,-0.48403c-0.00433,-0.0238 -0.00907,-0.05193 -0.01385,-0.08393c-0.31613,0.06796 -0.54216,0.06796 -0.54216,0.06796c-1.31619,-0.06205 -2.31469,-0.1701 -2.92117,0.1113c0.00043,0.00065 0.00087,0.0013 0.0013,0.00195c1.18666,1.78 -0.16529,3.05227 -0.58013,3.38235v0.0044c0,0 0,2.5 -2.5,2.5zM253.29581,64.32036c2.48735,-3.85051 4.67157,-3.21861 8.20419,-3.32036c0,0 2.19453,0 2.47141,2.0561c2.3606,-0.53582 2.95395,1.83756 2.95395,1.83756c1.13598,4.62702 1.15289,8.85484 1.07464,13.60634c-0.02082,1.26408 0.35936,2.62416 -0.12829,3.79057c-1.11897,2.67646 -3.60265,4.54814 -5.43835,6.7944c-0.88008,1.07692 -1.33422,2.52754 -2.41587,3.40179c-0.8814,0.7124 -2.23031,0.55852 -3.20316,1.13986c-0.9194,0.5494 -1.32772,1.88908 -2.35762,2.18307c-4.03667,1.15229 -9.5994,0.08878 -13.56305,-0.88434l-2.51169,-1.18929c0,0 -2.23607,-1.11803 -1.11803,-3.3541c1.11803,-2.23607 3.3541,-1.11803 3.3541,-1.11803l1.48831,0.81071c2.62865,0.67088 7.717,1.89381 10.43695,1.11566c0.78491,-0.22456 0.94326,-1.39533 1.64238,-1.81693c0.83525,-0.5037 2.03126,-0.25579 2.79684,-0.86014c0.79617,-0.6285 0.96018,-1.79846 1.58413,-2.59821c1.54816,-1.98434 3.45452,-2.72033 4.56165,-5.2056c0.3002,-0.67388 -0.11305,-1.47187 -0.12829,-2.20943c-0.0116,-0.56136 -0.01755,-1.11318 -0.02144,-1.6577c-0.88169,1.57329 -1.88101,2.9313 -3.03844,3.70124c-2.45793,1.63505 -10.39116,2.33252 -12.46823,0.41824c-1.27428,-1.17442 0.31443,-3.45639 0.62781,-5.16074c0.76463,-4.15857 2.13263,-6.50198 4.8505,-8.76617c-0.0801,-0.97001 -0.15566,-1.93851 0.34561,-2.7145z"/><path d="M304.87171,76.70943c0.79057,2.37171 -1.58114,3.16228 -1.58114,3.16228l-3.69463,1.12645c-2.02215,-0.65321 -4.66289,-0.36408 -6.06645,-1.95963c-1.04461,-1.1875 -0.61787,-3.03083 -0.53334,-4.69624c-0.13499,0.14872 -0.25961,0.30505 -0.36952,0.47204c-0.61094,0.9282 -0.35617,2.32058 -1.09852,3.14745c-2.65237,2.95432 -6.87985,5.93256 -11.20775,3.74241c-3.42401,-1.73274 -3.98587,-6.66219 -3.25348,-9.77857c1.8365,-7.81448 9.22895,-9.88889 16.07957,-10.90049c0,0 2.07649,-0.29664 2.69712,1.55555l0.61314,-0.39037c0.163,0.77202 0.34383,1.54093 0.52555,2.3097h1.01774v5c0.18027,1.32109 0.1089,2.67112 0,4c-0.06854,0.83645 -0.94022,1.72959 -0.52949,2.46147c0.3155,0.56218 1.28903,0.02691 1.93355,0.04037l2.30537,-0.87355c0,0 2.37171,-0.79057 3.16228,1.58114zM291.24259,66.37496c-4.07483,0.73162 -8.05107,2.15108 -9.30947,6.69942c-0.13291,0.48038 -0.40111,3.67027 0.74652,4.22143c3.51706,1.68911 4.64503,-3.56042 5.69373,-5.11014c0.72152,-1.06624 2.31428,-1.45713 2.81693,-2.64238c0.41372,-0.97555 0.16984,-2.08478 0.05229,-3.16833z"/><path d="M341.88675,82.41987c2.08013,1.38675 0.69338,3.46688 0.69338,3.46688l-3.17863,3.94505c-2.11387,-0.42942 -4.46934,-0.21708 -6.34161,-1.28827c-1.40066,-0.80136 -2.05338,-2.51755 -2.80567,-3.94516c-1.43181,-2.71711 -1.65752,-6.09145 -1.5766,-9.46317c-0.22191,0.98594 -0.54118,1.91801 -1.20421,2.64453c-1.80134,1.97382 -4.32498,4.62501 -6.93011,4.02997c-1.93141,-0.44116 -2.11963,-8.7127 -2.36765,-10.38918c-0.12177,-0.82312 0.05914,-1.9219 -0.60628,-2.42148c-0.5185,-0.38928 0.26597,1.36726 -0.02852,1.94489c-0.64808,1.27123 -2.23007,1.98897 -2.66914,3.34664c-0.47294,1.46239 0.6002,3.15798 0.09601,4.60989c-0.044,0.12671 -0.0921,0.25136 -0.14391,0.37415l0.0479,0.01597l-0.98177,2.94531c-0.31417,1.02156 -1.26534,1.76412 -2.38994,1.76412c-1.1246,0 -2.07576,-0.74256 -2.38994,-1.76412l-0.98177,-2.94531l0.13799,-0.046l-0.234,-0.34412c-0.03666,-6.13356 -0.03228,-12.26681 -0.03228,-18.40046c0,0 0,-2.5 2.5,-2.5c2.5,0 2.5,2.5 2.5,2.5c0,2.70334 0.00189,5.40661 -0.0001,8.10986c0.15965,-0.19515 0.31372,-0.38023 0.45926,-0.5538c1.21567,-1.44975 2.10404,-4.35888 3.97148,-4.05511c2.55299,0.41529 4.15495,3.30791 5.39372,5.57852c0.74468,1.36495 0.80765,3.01391 0.75581,4.60648c1.30073,-4.28554 2.14421,-8.73647 3.20571,-13.07977l0.10867,-0.1429l-0.0506,-0.02003l1.31013,-3.30931c0.35226,-0.95387 1.26967,-1.63395 2.34592,-1.63395c1.18975,0 2.18539,0.83109 2.43804,1.9444l0.98732,3.94927l-0.03455,0.00864c0.0318,0.09674 0.062,0.19414 0.09046,0.29224c0.4928,1.69845 0.01517,3.53696 0.01873,5.30546c0.00604,2.99999 0.01126,6.00002 0,9c-0.01332,3.54796 -0.05922,7.0984 3.59851,8.6682l0.82137,-2.05495c0,0 1.38675,-2.08013 3.46688,-0.69338z"/><path d="M364.5,71c1.01591,0.03199 2.08309,0.52363 3.04329,0.1903c0.77125,-0.26774 0.92637,-1.4247 1.64238,-1.81693c0.67551,-0.37004 1.68409,0.14513 2.28622,-0.33515c0.31785,-0.25353 -0.30848,-0.75292 -0.43961,-1.13777c-0.2352,-0.69027 -0.27885,-1.46376 -0.65891,-2.08613c-1.28578,-2.10552 -3.26505,-2.84493 -5.48388,-2.82533l0.00153,0.41407c-1.30686,0.99851 -3.95867,3.17393 -6.40494,4.76202c-0.36117,0.89504 -0.5321,1.85415 -0.64433,2.83441c2.21952,-0.00632 4.43993,-0.06935 6.65825,0.0005zM368.22446,58.10727c4.57198,1.54709 10.60953,8.65928 7.30365,13.85451c-0.72831,1.14455 -2.56791,0.93862 -3.71378,1.66485c-0.90465,0.57335 -1.33887,1.8525 -2.35762,2.18307c-2.96699,0.96274 -8.77123,0.1903 -11.95671,0.1903h-0.37675c-0.04136,0.1295 -0.08596,0.25798 -0.13416,0.38532c-0.37743,0.99711 -1.92249,1.42082 -2.01635,2.48283c-0.11381,1.28773 1.05802,2.3628 1.4801,3.5847c0.38475,1.11384 0.16228,2.52014 0.93579,3.40915c0.79656,0.9155 2.15105,1.17289 3.32347,1.48609c2.48623,0.66417 5.26303,0.59832 7.81568,0.65207l2.97222,-0.00015c0,0 2.5,0 2.5,2.5c0,2.5 -2.5,2.5 -2.5,2.5l-3.02778,-0.00015c-4.84387,-0.11281 -11.18709,0.08898 -14.86086,-3.86184c-0.64958,-0.69857 -3.6202,-10.4816 -3.58411,-11.00615c0.09927,-1.44266 1.83596,-2.29772 2.33966,-3.65323c0.5884,-1.58346 0.83973,-3.10861 1.05568,-4.57531c-0.90799,-0.24562 -1.80529,-0.78284 -2.71316,-1.0316c0,0 -2.37171,-0.79057 -1.58114,-3.16228c0.79057,-2.37171 3.16228,-1.58114 3.16228,-1.58114c0.88474,0.40505 1.69626,0.48133 2.46369,0.339c0.60863,-1.25736 1.54481,-2.46101 3.07286,-3.61081c0.07398,-0.05567 0.1486,-0.11027 0.22385,-0.16388l-0.01704,-0.0213l3.88879,-3.11103c0.43024,-0.35027 0.97924,-0.56027 1.57729,-0.56027c0.8059,0 1.52274,0.38133 1.97992,0.9734c0.93337,-0.05861 1.87451,-0.16053 2.74454,0.13387z"/></g></g></svg>