<svg version="1.1" xmlns="http://www.w3.org/2000/svg" xmlns:xlink="http://www.w3.org/1999/xlink" width="73.4557" height="72.5375" viewBox="0,0,73.4557,72.5375"><g transform="translate(-392.0443,-17)"><g data-paper-data="{&quot;isPaintingLayer&quot;:true}" fill-rule="nonzero" stroke="none" stroke-linecap="butt" stroke-linejoin="miter" stroke-miterlimit="10" stroke-dasharray="" stroke-dashoffset="0" style="mix-blend-mode: normal"><path d="M392.0443,89.5375v-72.5375h73.4557v72.5375z" fill="#cccccc" stroke-width="0"/><path d="M434.47363,67.383c-2.1777,-0.7259 -1.4518,-2.90359 -1.4518,-2.90359l0.50549,-1.50392c0.37771,-0.9022 0.59124,-1.89237 1.13314,-2.70661c1.77334,-2.66458 3.59135,-1.96739 3.29366,-5.16372c0,0 0,-1.17774 0.8436,-1.84602c-0.07582,-0.49813 -0.15843,-1.04605 -0.2996,-1.66732c-0.03044,-0.13395 -0.38699,-2.10491 -1.18645,-2.00316c-0.62717,0.07983 -1.05408,0.78219 -1.67805,0.88411c-1.15729,0.18902 -2.3814,-0.32506 -3.5177,-0.03548c-1.00557,0.25627 -1.77598,1.07389 -2.66398,1.61085c0,0 -1.80606,1.03203 -2.96211,-0.58802c-0.22529,-0.01088 -0.47119,-0.05624 -0.73907,-0.14552c-2.1777,-0.7259 -1.4518,-2.90359 -1.4518,-2.90359c1.43934,-4.30939 4.50815,-11.42208 3.17279,-16.13065c-0.54599,-1.92519 -2.66579,-3.59716 -4.35594,-4.52415c-0.56912,-0.31214 -1.24428,-0.38464 -1.83187,-0.66044c-0.16094,-0.07554 -0.4016,-0.55281 -0.37765,-0.37664c0.05854,0.43062 0.53727,0.7758 0.49065,1.20787c-0.10383,0.96228 -0.73775,1.8037 -0.9182,2.75459c-0.69719,3.67394 0.02964,8.28872 0.02964,12.02795c-0.06165,4.06296 -1.75607,6.34474 -3.47588,9.78822c-1.24169,2.48614 -1.87353,5.00308 -4.08292,6.98518c-2.17725,1.95326 -4.28087,3.33201 -7.2742,1.01592c-1.82591,-1.41279 -2.2135,-6.43406 -3.99001,-8.14826c-0.11474,-0.11072 0.02755,0.3243 -0.01442,0.47812c-0.14429,0.52881 -0.39821,1.02374 -0.53984,1.55327c-0.34051,1.27314 -0.36698,2.619 -0.36394,3.93689c0.00757,3.26735 -0.29091,6.60122 0.33485,9.81429c0.51705,1.0231 1.68462,4.12501 3.14564,4.53555c1.66977,0.46921 4.90203,-0.1178 6.61967,-0.1178l2.23357,0.49246c0.31559,-0.50153 0.88195,-0.95155 1.89832,-0.95155c1.98533,0 2.25358,1.71708 2.28983,2.18109c0.9986,0.74749 2.24204,1.1943 3.3665,1.75388c0.67037,0.33361 1.11262,1.03971 1.79197,1.35463c4.3067,1.99646 9.54392,1.58513 14.1293,1.59686c1.46257,0.00375 2.90459,-0.36482 4.36479,-0.44792c0.66494,-0.03785 1.3792,0.48904 1.9864,0.21539c1.44937,-0.6532 1.66827,-2.70671 2.50344,-4.05943c3.04518,-2.14422 3.24777,-7.42718 3.54679,-11.02099c0.03691,-0.44364 0.50955,-4.00641 -0.31147,-4.32265c-1.66418,-0.64099 -4.22135,-0.60623 -6.1183,-1.24422c-0.03732,0.21809 -0.09419,0.43189 -0.17811,0.63976c-1.00862,2.49836 -3.59771,3.30917 -4.58043,5.94235l-0.41271,1.25067c0,0 -0.7259,2.1777 -2.90359,1.4518zM430.93756,46.00008c1.22993,-0.33982 2.56534,0.14953 3.82787,-0.03548c1.01075,-0.14811 1.90769,-1.13408 2.91293,-0.95228c1.45357,0.26288 2.82533,1.12266 3.85976,2.17713c0.99659,1.01589 1.09741,5.91656 2.23087,6.4328c2.00589,0.9136 5.50822,0.51349 7.34557,1.83639c4.31717,3.10841 2.27297,10.02371 1.49309,14.29238c-0.39157,2.14329 -0.55007,4.52884 -1.77297,6.43754c-0.45665,0.71273 -1.32931,1.04831 -1.99396,1.57248c-0.93865,1.62177 -2.28062,4.26285 -3.92393,5.12253c-1.04243,0.54534 -2.35415,0.07991 -3.52278,0.21539c-1.60263,0.18579 -3.20382,0.46653 -4.81717,0.47027c-8.12054,0.01883 -16.53528,-0.60224 -22.74313,-6.21394c-0.79572,0.39987 -1.68671,0.17712 -1.68671,0.17712l-1.27965,-0.39056c-2.1254,0 -6.07579,0.59295 -8.07147,-0.1178c-3.22822,-1.14971 -4.67039,-4.64799 -6.03632,-7.401c-0.88129,-4.33468 -1.03941,-9.4044 -0.57217,-13.82591c0.145,-1.37214 0.90926,-4.76326 1.83964,-5.7611c5.59312,-5.99866 9.28406,2.6481 10.6867,7.02101c0.13087,0.40801 0.72161,-0.4861 0.98957,-0.82047c0.41085,-0.51269 0.76897,-1.06559 1.16406,-1.59053c1.43575,-1.90763 2.34134,-4.09395 3.50805,-6.1747c1.02214,-1.82291 1.58762,-3.71311 1.54203,-5.76186c0,-5.32733 -0.23296,-10.37378 0.94784,-15.51794c0.25493,-1.11062 -0.31733,-2.5796 0.49065,-3.38311c4.88755,-4.8605 13.16119,2.97104 14.55304,7.29351c0.34173,1.06122 0.06369,2.22896 0.0769,3.34377c0.04819,4.06602 -0.99067,8.11815 -2.22532,12.03426c0.37684,-0.19821 0.76589,-0.36631 1.17704,-0.4799zM416.66042,73.7222l-0.03805,-0.0399c0.01262,0.01339 0.0253,0.02668 0.03805,0.0399z" fill="#afafaf" stroke-width="0.5"/></g></g></svg>