<svg version="1.1" xmlns="http://www.w3.org/2000/svg" xmlns:xlink="http://www.w3.org/1999/xlink" width="80" height="79" viewBox="0,0,80,79"><g transform="translate(-388.5,-13.5)"><g data-paper-data="{&quot;isPaintingLayer&quot;:true}" fill-rule="nonzero" stroke="none" stroke-linecap="butt" stroke-linejoin="miter" stroke-miterlimit="10" stroke-dasharray="" stroke-dashoffset="0" style="mix-blend-mode: normal"><path d="M388.5,92.5v-79h80v79z" fill="#b9b9b9" stroke-width="0"/><path d="M434.70943,68.37171c-2.37171,-0.79057 -1.58114,-3.16228 -1.58114,-3.16228l0.55052,-1.63791c0.41136,-0.98258 0.64391,-2.06097 1.23409,-2.94775c1.93133,-2.90197 3.91131,-2.14267 3.5871,-5.62377c0,0 0,-1.28267 0.91876,-2.01049c-0.08257,-0.54251 -0.17255,-1.13924 -0.32629,-1.81587c-0.03315,-0.14588 -0.42147,-2.29244 -1.29215,-2.18163c-0.68305,0.08694 -1.14799,0.85188 -1.82755,0.96288c-1.2604,0.20586 -2.59356,-0.35402 -3.8311,-0.03864c-1.09516,0.2791 -1.93421,1.16957 -2.90132,1.75436c0,0 -1.96697,1.12398 -3.22601,-0.64041c-0.24536,-0.01185 -0.51317,-0.06125 -0.80491,-0.15849c-2.37171,-0.79057 -1.58114,-3.16228 -1.58114,-3.16228c1.56757,-4.69332 4.90979,-12.43969 3.45546,-17.56776c-0.59463,-2.09671 -2.90329,-3.91764 -4.74402,-4.92722c-0.61982,-0.33995 -1.35514,-0.41891 -1.99508,-0.71928c-0.17528,-0.08227 -0.43738,-0.60206 -0.4113,-0.4102c0.06375,0.46898 0.58514,0.84492 0.53436,1.31548c-0.11308,1.04801 -0.80348,1.96439 -1,3c-0.7593,4.00126 0.03228,9.02718 0.03228,13.09954c-0.06714,4.42494 -1.91252,6.91 -3.78555,10.66027c-1.35231,2.70764 -2.04045,5.44881 -4.44668,7.6075c-2.37122,2.12728 -4.66226,3.62886 -7.92227,1.10643c-1.98858,-1.53866 -2.4107,-7.00728 -4.34549,-8.8742c-0.12496,-0.12058 0.03,0.35319 -0.01571,0.52072c-0.15714,0.57592 -0.43369,1.11495 -0.58793,1.69165c-0.37085,1.38657 -0.39968,2.85233 -0.39636,4.28763c0.00824,3.55844 -0.31683,7.18933 0.36468,10.68866c0.56312,1.11425 1.83471,4.49251 3.42589,4.93963c1.81853,0.51101 5.33876,-0.12829 7.20943,-0.12829l2.43256,0.53633c0.34371,-0.54621 0.96052,-1.03633 2.06744,-1.03633c2.16221,0 2.45436,1.87006 2.49383,2.37541c1.08757,0.81408 2.44179,1.3007 3.66643,1.91014c0.73009,0.36333 1.21175,1.13234 1.95162,1.47532c4.69039,2.17433 10.39421,1.72635 15.38811,1.73913c1.59287,0.00408 3.16336,-0.39732 4.75366,-0.48783c0.72418,-0.04122 1.50208,0.53261 2.16337,0.23458c1.5785,-0.7114 1.8169,-2.94786 2.72648,-4.42109c3.31648,-2.33525 3.53712,-8.08888 3.86278,-12.00287c0.0402,-0.48317 0.55495,-4.36335 -0.33922,-4.70776c-1.81244,-0.6981 -4.59744,-0.66024 -6.66339,-1.35507c-0.04065,0.23752 -0.10258,0.47037 -0.19398,0.69676c-1.09848,2.72094 -3.91824,3.60399 -4.98851,6.47177l-0.44948,1.36209c0,0 -0.79057,2.37171 -3.16228,1.58114zM430.85833,45.08375c1.33951,-0.3701 2.79389,0.16285 4.1689,-0.03864c1.1008,-0.16131 2.07765,-1.23512 3.17245,-1.03712c1.58307,0.2863 3.07704,1.22268 4.20363,2.37109c1.08538,1.1064 1.19518,6.44368 2.42962,7.00591c2.1846,0.99499 5.99896,0.55924 8,2c4.7018,3.38534 2.47547,10.91674 1.62611,15.56572c-0.42646,2.33424 -0.59908,4.93232 -1.93093,7.01107c-0.49733,0.77623 -1.44774,1.14171 -2.17161,1.71257c-1.02228,1.76626 -2.48381,4.64264 -4.27352,5.57891c-1.1353,0.59392 -2.56389,0.08703 -3.83663,0.23458c-1.74541,0.20234 -3.48925,0.50809 -5.24634,0.51217c-8.84401,0.02051 -18.00844,-0.65589 -24.76936,-6.76755c-0.86661,0.4355 -1.83698,0.1929 -1.83698,0.1929l-1.39366,-0.42536c-2.31476,0 -6.61709,0.64578 -8.79057,-0.12829c-3.51583,-1.25214 -5.08648,-5.06209 -6.57411,-8.06037c-0.95981,-4.72087 -1.13201,-10.24226 -0.62315,-15.05769c0.15792,-1.49439 0.99027,-5.18763 2.00354,-6.27437c6.09142,-6.53309 10.11119,2.88402 11.6388,7.64652c0.14253,0.44436 0.7859,-0.52941 1.07773,-0.89357c0.44745,-0.55837 0.83748,-1.16053 1.26777,-1.73223c1.56366,-2.07758 2.54993,-4.45869 3.82059,-6.72481c1.1132,-1.98532 1.72906,-4.04392 1.67941,-6.27519c0,-5.80195 -0.25371,-11.298 1.03228,-16.90046c0.27764,-1.20957 -0.3456,-2.80942 0.53436,-3.68452c5.32299,-5.29353 14.33374,3.23574 15.8496,7.9433c0.37217,1.15577 0.06936,2.42754 0.08375,3.64167c0.05248,4.42827 -1.07893,8.84141 -2.42358,13.10641c0.41041,-0.21587 0.83412,-0.39894 1.28191,-0.52266zM415.30921,75.27569l-0.04144,-0.04345c0.01374,0.01458 0.02755,0.02906 0.04144,0.04345z" fill="#939393" stroke-width="0.5"/></g></g></svg>